<svg width="266" height="178" viewBox="0 0 266 178" fill="none" xmlns="http://www.w3.org/2000/svg">
<path d="M26.0423 120.679C25.9 117.766 28.2133 115.37 31.1298 115.411L81.4002 116.11C85.9149 116.173 88.2596 121.615 85.1565 124.828L37.3394 174.344C34.2363 177.558 28.716 175.404 28.4957 170.894L26.0423 120.679Z" fill="#FF9591"/>
<path d="M114.729 120.679C114.587 117.766 116.9 115.37 119.817 115.411L170.087 116.11C174.602 116.173 176.947 121.615 173.843 124.828L126.026 174.344C122.923 177.558 117.403 175.404 117.183 170.894L114.729 120.679Z" fill="#FF9591"/>
<path d="M115.042 31.679C114.9 28.7657 117.213 26.3702 120.13 26.4107L170.4 27.1101C174.915 27.1729 177.26 32.6147 174.157 35.8281L126.339 85.3441C123.236 88.5575 117.716 86.4042 117.496 81.8944L115.042 31.679Z" fill="#FF9591"/>
<path d="M203.729 31.679C203.587 28.7657 205.9 26.3702 208.817 26.4107L259.087 27.1101C263.602 27.1729 265.947 32.6147 262.843 35.8281L215.026 85.3441C211.923 88.5575 206.403 86.4042 206.183 81.8944L203.729 31.679Z" fill="#FF9591"/>
</svg>
