<svg width="266" height="178" viewBox="0 0 266 178" fill="none" xmlns="http://www.w3.org/2000/svg">
<path d="M239.958 57.321C240.1 60.2343 237.787 62.6298 234.87 62.5893L184.6 61.8899C180.085 61.8271 177.74 56.3853 180.843 53.1719L228.661 3.65588C231.764 0.442498 237.284 2.59584 237.504 7.10562L239.958 57.321Z" fill="#87C8FF"/>
<path d="M151.271 57.321C151.413 60.2343 149.1 62.6298 146.183 62.5893L95.9128 61.8899C91.3981 61.8271 89.0534 56.3853 92.1565 53.1719L139.974 3.65588C143.077 0.442498 148.597 2.59584 148.817 7.10562L151.271 57.321Z" fill="#87C8FF"/>
<path d="M150.958 146.321C151.1 149.234 148.787 151.63 145.87 151.589L95.5998 150.89C91.0851 150.827 88.7404 145.385 91.8435 142.172L139.661 92.6559C142.764 89.4425 148.284 91.5958 148.504 96.1056L150.958 146.321Z" fill="#87C8FF"/>
<path d="M62.2707 146.321C62.4131 149.234 60.0997 151.63 57.1833 151.589L6.91284 150.89C2.39811 150.827 0.0534054 145.385 3.15653 142.172L50.9736 92.6559C54.0768 89.4425 59.5971 91.5958 59.8174 96.1056L62.2707 146.321Z" fill="#87C8FF"/>
</svg>
