<svg width="157" height="43" viewBox="0 0 157 43" fill="none" xmlns="http://www.w3.org/2000/svg">
<path d="M36.875 29.1875V21.6562C36.875 21.1146 36.7865 20.651 36.6094 20.2656C36.4323 19.8698 36.1562 19.5625 35.7812 19.3438C35.4167 19.125 34.9427 19.0156 34.3594 19.0156C33.8594 19.0156 33.4271 19.1042 33.0625 19.2812C32.6979 19.4479 32.4167 19.6927 32.2188 20.0156C32.0208 20.3281 31.9219 20.6979 31.9219 21.125H27.4219C27.4219 20.4062 27.5885 19.724 27.9219 19.0781C28.2552 18.4323 28.7396 17.8646 29.375 17.375C30.0104 16.875 30.7656 16.4844 31.6406 16.2031C32.526 15.9219 33.5156 15.7812 34.6094 15.7812C35.9219 15.7812 37.0885 16 38.1094 16.4375C39.1302 16.875 39.9323 17.5312 40.5156 18.4062C41.1094 19.2812 41.4062 20.375 41.4062 21.6875V28.9219C41.4062 29.849 41.4635 30.6094 41.5781 31.2031C41.6927 31.7865 41.8594 32.2969 42.0781 32.7344V33H37.5312C37.3125 32.5417 37.1458 31.9688 37.0312 31.2812C36.9271 30.5833 36.875 29.8854 36.875 29.1875ZM37.4688 22.7031L37.5 25.25H34.9844C34.3906 25.25 33.875 25.3177 33.4375 25.4531C33 25.5885 32.6406 25.7812 32.3594 26.0312C32.0781 26.2708 31.8698 26.5521 31.7344 26.875C31.6094 27.1979 31.5469 27.5521 31.5469 27.9375C31.5469 28.3229 31.6354 28.6719 31.8125 28.9844C31.9896 29.2865 32.2448 29.526 32.5781 29.7031C32.9115 29.8698 33.3021 29.9531 33.75 29.9531C34.4271 29.9531 35.0156 29.8177 35.5156 29.5469C36.0156 29.276 36.401 28.9427 36.6719 28.5469C36.9531 28.151 37.099 27.776 37.1094 27.4219L38.2969 29.3281C38.1302 29.7552 37.901 30.1979 37.6094 30.6562C37.3281 31.1146 36.9688 31.5469 36.5312 31.9531C36.0938 32.349 35.5677 32.6771 34.9531 32.9375C34.3385 33.1875 33.6094 33.3125 32.7656 33.3125C31.6927 33.3125 30.7188 33.099 29.8438 32.6719C28.9792 32.2344 28.2917 31.6354 27.7812 30.875C27.2812 30.1042 27.0312 29.2292 27.0312 28.25C27.0312 27.3646 27.1979 26.5781 27.5312 25.8906C27.8646 25.2031 28.3542 24.625 29 24.1562C29.6562 23.6771 30.474 23.3177 31.4531 23.0781C32.4323 22.8281 33.5677 22.7031 34.8594 22.7031H37.4688ZM54.0156 28.3281C54.0156 28.0052 53.9219 27.7135 53.7344 27.4531C53.5469 27.1927 53.1979 26.9531 52.6875 26.7344C52.1875 26.5052 51.4635 26.2969 50.5156 26.1094C49.6615 25.9219 48.8646 25.6875 48.125 25.4062C47.3958 25.1146 46.7604 24.7656 46.2188 24.3594C45.6875 23.9531 45.2708 23.474 44.9688 22.9219C44.6667 22.3594 44.5156 21.7188 44.5156 21C44.5156 20.2917 44.6667 19.625 44.9688 19C45.2812 18.375 45.724 17.8229 46.2969 17.3438C46.8802 16.8542 47.5885 16.474 48.4219 16.2031C49.2656 15.9219 50.2135 15.7812 51.2656 15.7812C52.7344 15.7812 53.9948 16.0156 55.0469 16.4844C56.1094 16.9531 56.9219 17.599 57.4844 18.4219C58.0573 19.2344 58.3438 20.1615 58.3438 21.2031H53.8438C53.8438 20.7656 53.75 20.375 53.5625 20.0312C53.3854 19.6771 53.1042 19.401 52.7188 19.2031C52.3438 18.9948 51.8542 18.8906 51.25 18.8906C50.75 18.8906 50.3177 18.9792 49.9531 19.1562C49.5885 19.3229 49.3073 19.5521 49.1094 19.8438C48.9219 20.125 48.8281 20.4375 48.8281 20.7812C48.8281 21.0417 48.8802 21.276 48.9844 21.4844C49.099 21.6823 49.2812 21.8646 49.5312 22.0312C49.7812 22.1979 50.1042 22.3542 50.5 22.5C50.9062 22.6354 51.4062 22.7604 52 22.875C53.2188 23.125 54.3073 23.4531 55.2656 23.8594C56.224 24.2552 56.9844 24.7969 57.5469 25.4844C58.1094 26.1615 58.3906 27.0521 58.3906 28.1562C58.3906 28.9062 58.224 29.5938 57.8906 30.2188C57.5573 30.8438 57.0781 31.3906 56.4531 31.8594C55.8281 32.3177 55.0781 32.6771 54.2031 32.9375C53.3385 33.1875 52.3646 33.3125 51.2812 33.3125C49.7083 33.3125 48.375 33.0312 47.2812 32.4688C46.1979 31.9062 45.375 31.1927 44.8125 30.3281C44.2604 29.4531 43.9844 28.5573 43.9844 27.6406H48.25C48.2708 28.2552 48.4271 28.75 48.7188 29.125C49.0208 29.5 49.401 29.7708 49.8594 29.9375C50.3281 30.1042 50.8333 30.1875 51.375 30.1875C51.9583 30.1875 52.4427 30.1094 52.8281 29.9531C53.2135 29.7865 53.5052 29.5677 53.7031 29.2969C53.9115 29.0156 54.0156 28.6927 54.0156 28.3281ZM69.0938 33.3125C67.7812 33.3125 66.6042 33.1042 65.5625 32.6875C64.5208 32.2604 63.6354 31.6719 62.9062 30.9219C62.1875 30.1719 61.6354 29.3021 61.25 28.3125C60.8646 27.3125 60.6719 26.25 60.6719 25.125V24.5C60.6719 23.2188 60.8542 22.0469 61.2188 20.9844C61.5833 19.9219 62.1042 19 62.7812 18.2188C63.4688 17.4375 64.3021 16.8385 65.2812 16.4219C66.2604 15.9948 67.3646 15.7812 68.5938 15.7812C69.7917 15.7812 70.8542 15.9792 71.7812 16.375C72.7083 16.7708 73.4844 17.3333 74.1094 18.0625C74.7448 18.7917 75.224 19.6667 75.5469 20.6875C75.8698 21.6979 76.0312 22.8229 76.0312 24.0625V25.9375H62.5938V22.9375H71.6094V22.5938C71.6094 21.9688 71.4948 21.4115 71.2656 20.9219C71.0469 20.4219 70.7135 20.026 70.2656 19.7344C69.8177 19.4427 69.2448 19.2969 68.5469 19.2969C67.9531 19.2969 67.4427 19.4271 67.0156 19.6875C66.5885 19.9479 66.2396 20.3125 65.9688 20.7812C65.7083 21.25 65.5104 21.8021 65.375 22.4375C65.25 23.0625 65.1875 23.75 65.1875 24.5V25.125C65.1875 25.8021 65.2812 26.4271 65.4688 27C65.6667 27.5729 65.9427 28.0677 66.2969 28.4844C66.6615 28.901 67.099 29.224 67.6094 29.4531C68.1302 29.6823 68.7188 29.7969 69.375 29.7969C70.1875 29.7969 70.9427 29.6406 71.6406 29.3281C72.349 29.0052 72.9583 28.5208 73.4688 27.875L75.6562 30.25C75.3021 30.7604 74.8177 31.25 74.2031 31.7188C73.599 32.1875 72.8698 32.5729 72.0156 32.875C71.1615 33.1667 70.1875 33.3125 69.0938 33.3125Z" fill="#FE7773"/>
<path d="M83.4219 28.625L86.9375 16.0938H89.7969L88.875 21.0156L85.3594 33H82.9688L83.4219 28.625ZM81.6406 16.0938L84.1562 28.6094L84.3906 33H81.5781L77.2969 16.0938H81.6406ZM93.0156 28.4062L95.4688 16.0938H99.8281L95.5469 33H92.75L93.0156 28.4062ZM90.1875 16.0938L93.6875 28.5312L94.1719 33H91.7656L88.25 21.0312L87.3594 16.0938H90.1875ZM106.844 16.0938V33H102.328V16.0938H106.844ZM102.047 11.6875C102.047 11.0312 102.276 10.4896 102.734 10.0625C103.193 9.63542 103.807 9.42188 104.578 9.42188C105.339 9.42188 105.948 9.63542 106.406 10.0625C106.875 10.4896 107.109 11.0312 107.109 11.6875C107.109 12.3438 106.875 12.8854 106.406 13.3125C105.948 13.7396 105.339 13.9531 104.578 13.9531C103.807 13.9531 103.193 13.7396 102.734 13.3125C102.276 12.8854 102.047 12.3438 102.047 11.6875ZM114.969 19.7031V33H110.469V16.0938H114.688L114.969 19.7031ZM114.312 23.9531H113.094C113.094 22.7031 113.255 21.5781 113.578 20.5781C113.901 19.5677 114.354 18.7083 114.938 18C115.521 17.2812 116.214 16.7344 117.016 16.3594C117.828 15.974 118.734 15.7812 119.734 15.7812C120.526 15.7812 121.25 15.8958 121.906 16.125C122.562 16.3542 123.125 16.7188 123.594 17.2188C124.073 17.7188 124.438 18.3802 124.688 19.2031C124.948 20.026 125.078 21.0312 125.078 22.2188V33H120.547V22.2031C120.547 21.4531 120.443 20.8698 120.234 20.4531C120.026 20.0365 119.719 19.7448 119.312 19.5781C118.917 19.401 118.427 19.3125 117.844 19.3125C117.24 19.3125 116.714 19.4323 116.266 19.6719C115.828 19.9115 115.464 20.2448 115.172 20.6719C114.891 21.0885 114.677 21.5781 114.531 22.1406C114.385 22.7031 114.312 23.3073 114.312 23.9531ZM138.484 29.3125V9H143.016V33H138.938L138.484 29.3125ZM127.797 24.75V24.4219C127.797 23.1302 127.943 21.9583 128.234 20.9062C128.526 19.8438 128.953 18.9323 129.516 18.1719C130.078 17.4115 130.771 16.8229 131.594 16.4062C132.417 15.9896 133.354 15.7812 134.406 15.7812C135.396 15.7812 136.26 15.9896 137 16.4062C137.75 16.8229 138.385 17.4167 138.906 18.1875C139.438 18.9479 139.865 19.849 140.188 20.8906C140.51 21.9219 140.745 23.0521 140.891 24.2812V25C140.745 26.1771 140.51 27.2708 140.188 28.2812C139.865 29.2917 139.438 30.1771 138.906 30.9375C138.385 31.6875 137.75 32.2708 137 32.6875C136.25 33.1042 135.375 33.3125 134.375 33.3125C133.323 33.3125 132.385 33.099 131.562 32.6719C130.75 32.2448 130.062 31.6458 129.5 30.875C128.948 30.1042 128.526 29.1979 128.234 28.1562C127.943 27.1146 127.797 25.9792 127.797 24.75ZM132.297 24.4219V24.75C132.297 25.4479 132.349 26.099 132.453 26.7031C132.568 27.3073 132.75 27.8438 133 28.3125C133.26 28.7708 133.594 29.1302 134 29.3906C134.417 29.6406 134.922 29.7656 135.516 29.7656C136.286 29.7656 136.922 29.5938 137.422 29.25C137.922 28.8958 138.302 28.4115 138.562 27.7969C138.833 27.1823 138.99 26.474 139.031 25.6719V23.625C139 22.9688 138.906 22.3802 138.75 21.8594C138.604 21.3281 138.385 20.875 138.094 20.5C137.812 20.125 137.458 19.8333 137.031 19.625C136.615 19.4167 136.12 19.3125 135.547 19.3125C134.964 19.3125 134.464 19.4479 134.047 19.7188C133.63 19.9792 133.292 20.3385 133.031 20.7969C132.781 21.2552 132.594 21.7969 132.469 22.4219C132.354 23.0365 132.297 23.7031 132.297 24.4219Z" fill="#73B4FE"/>
<g clip-path="url(#clip0_113_488)">
<path d="M2.67988 26.612C2.00767 25.9677 2.00767 24.8932 2.67988 24.2489L14.2667 13.1436C15.3073 12.1462 17.0358 12.8837 17.0358 14.3251V36.5358C17.0358 37.9772 15.3073 38.7147 14.2667 37.7174L2.67988 26.612Z" fill="#FE7773"/>
<path d="M23.467 16.5681C24.0289 17.3105 23.859 18.3715 23.0934 18.9015L9.89659 28.0354C8.7114 28.8557 7.12128 27.8542 7.34915 26.4309L10.8605 4.49952C11.0883 3.07627 12.9116 2.62127 13.7815 3.7706L23.467 16.5681Z" fill="#73B4FE"/>
</g>
<defs>
<clipPath id="clip0_113_488">
<rect width="26" height="43" fill="white"/>
</clipPath>
</defs>
</svg>
