<svg width="301" height="510" viewBox="0 0 301 510" fill="none" xmlns="http://www.w3.org/2000/svg">
<path d="M6.93819 362.497C-1.60896 354.305 -1.60898 340.642 6.93818 332.45L154.264 191.247C167.495 178.565 189.472 187.943 189.472 206.27V488.677C189.472 507.004 167.495 516.382 154.264 503.7L6.93819 362.497Z" fill="#FE7773"/>
<path d="M271.245 234.789C278.389 244.229 276.23 257.72 266.495 264.458L98.6987 380.595C83.6291 391.025 63.4109 378.291 66.3082 360.194L110.954 81.3383C113.852 63.2418 137.035 57.4565 148.095 72.0701L271.245 234.789Z" fill="#73B4FE"/>
<path d="M230.863 22.4507C218.667 1.92466 194.538 0.968053 194.538 0.968053C194.538 0.968053 171.026 -2.02678 155.943 29.2346C141.884 58.3727 122.481 86.5062 152.819 93.3273L158.299 76.3391L161.693 94.592C166.012 94.9014 170.345 94.9752 174.673 94.813C207.162 93.7682 238.103 95.1186 237.107 83.5064C235.783 68.0695 242.599 42.2008 230.863 22.4507Z" fill="#2F2E41"/>
<path d="M180.804 65.4099C185.006 74.6691 187.656 85.706 189.239 97.9655L222.978 95.8651C215.221 84.917 212.646 72.3508 215.598 58.0586L180.804 65.4099Z" fill="#FFB8B8"/>
<path opacity="0.2" d="M180.804 65.4099C185.006 74.6691 187.656 85.706 189.239 97.9655L222.978 95.8651C215.221 84.917 212.646 72.3508 215.598 58.0586L180.804 65.4099Z" fill="black"/>
<path d="M24.2617 241.702C24.2617 241.702 6.79935 251.018 15.6605 258.973C24.5217 266.927 36.227 248.444 36.227 248.444L24.2617 241.702Z" fill="#FFB8B8"/>
<path d="M237.739 214.536L237.467 227.264L236.884 254.766L236.395 278.097L201.038 292L124.557 265.444L129.589 237.615L133.653 215.145L135.466 205.084L227.197 192.482L237.739 214.536Z" fill="#2F2E41"/>
<path d="M237.739 214.536L237.465 227.264C205.012 226.434 154.708 218.632 133.653 215.145L135.466 205.084L227.196 192.482L237.739 214.536Z" fill="#3F3D56"/>
<path d="M197.146 74.3364C211.704 74.3364 223.505 62.5818 223.505 48.0818C223.505 33.5818 211.704 21.8273 197.146 21.8273C182.589 21.8273 170.787 33.5818 170.787 48.0818C170.787 62.5818 182.589 74.3364 197.146 74.3364Z" fill="#FFB8B8"/>
<path d="M247.756 228.713C247.756 228.713 250.919 257.068 231.94 254.968L228.777 226.613L211.907 209.81L164.461 208.76L129.667 241.315C129.667 241.315 128.613 207.71 132.83 204.559C137.048 201.409 146.537 194.057 146.537 194.057V188.806L118.069 131.046C118.069 131.046 134.939 96.3902 148.646 95.3401L166.57 94.2899C166.57 94.2899 172.896 91.1393 172.896 90.0891C172.896 89.0389 171.842 80.6375 177.113 82.7378C177.113 82.7378 177.588 71.963 183.144 75.25C183.144 75.25 200.636 88.9024 218.392 75.8487C218.392 75.8487 226.668 74.3364 225.614 78.5371C224.56 82.7379 225.614 85.8884 227.723 85.8884C229.832 85.8884 239.321 89.039 239.321 91.1393C239.321 91.5909 240.006 95.9387 241.081 102.481V102.492C244.993 126.341 254.082 179.355 254.082 179.355C254.082 179.355 263.571 193.007 247.756 228.713Z" fill="#0B9CDB"/>
<path d="M125.45 125.795L118.069 131.046C118.069 131.046 104.114 153.34 85.95 177.1C74.9823 191.447 62.4802 206.329 50.5899 217.161C39.379 227.374 21.3422 240.7 16.1698 244.478C15.2541 245.147 14.7415 245.516 14.7415 245.516C14.7415 245.516 34.7744 242.366 30.557 259.169C50.2107 247.959 66.3418 238.758 81.8245 229.927C104.293 217.111 125.396 205.074 153.917 188.806L125.45 125.795Z" fill="#0B9CDB"/>
<path d="M241.082 102.481V102.492C239.679 110.704 193.983 108.992 187.657 108.992C181.331 108.992 176.059 107.942 169.733 103.742C163.407 99.5408 166.57 94.2899 166.57 94.2899C166.57 94.2899 171.956 90.2035 171.956 89.1533C171.956 88.1031 170.902 79.7016 176.174 81.802C176.174 81.802 176.648 71.0271 182.205 74.3142C182.205 74.3142 200.636 88.9025 218.392 75.8487C218.392 75.8487 226.668 74.3364 225.614 78.5371C224.56 82.7379 225.614 85.8884 227.723 85.8884C229.832 85.8884 239.321 89.039 239.321 91.1394C239.321 91.5909 240.006 95.9387 241.082 102.481Z" fill="#3F3D56"/>
<path d="M235.63 63.3095C235.63 63.3095 227.196 45.4564 218.761 53.8579C210.326 62.2593 228.25 74.8615 228.25 74.8615L235.63 63.3095Z" fill="#FFB8B8"/>
<path d="M235.63 59.1088C235.63 59.1088 222.606 75.5038 218.574 76.7579C218.574 76.7579 230.359 123.17 245.12 135.772L253.555 178.83C253.555 178.83 289.403 164.127 280.968 139.973C280.884 139.731 280.8 139.491 280.716 139.253C273.673 119.137 263.954 100.054 251.817 82.5121L235.63 59.1088Z" fill="#0B9CDB"/>
<path opacity="0.2" d="M228.67 107.735L254.609 178.83L245.12 135.772L228.67 107.735Z" fill="black"/>
<path d="M225.471 20.4718L201.633 8.03476L168.713 13.1227L161.902 43.0853L178.857 42.4358L183.594 31.4279V42.2543L191.416 41.9543L195.957 24.4293L198.795 43.0853L226.606 42.5201L225.471 20.4718Z" fill="#2F2E41"/>
</svg>
